<?xml version="1.0" encoding="UTF-8" standalone="no"?>
<!DOCTYPE svg PUBLIC "-//W3C//DTD SVG 1.1//EN" "http://www.w3.org/Graphics/SVG/1.1/DTD/svg11.dtd">
<svg width="100%" height="100%" viewBox="0 0 376 478" version="1.1" xmlns="http://www.w3.org/2000/svg" xmlns:xlink="http://www.w3.org/1999/xlink" xml:space="preserve" xmlns:serif="http://www.serif.com/" style="fill-rule:evenodd;clip-rule:evenodd;stroke-linejoin:round;stroke-miterlimit:2;">
    <g transform="matrix(4.16667,0,0,4.16667,343.408,333.774)">
        <path d="M0,-45.797C-1.088,-24.041 -1.717,-18.163 -6.069,-5.196C-8.061,0.738 -11.906,5.999 -16.201,10.244C-20.45,14.443 -24.331,17.619 -29.11,21.262C-31.683,23.224 -35.092,25.544 -37.4,25.654C-39.708,25.564 -43.137,23.232 -45.723,21.261C-50.502,17.617 -54.382,14.441 -58.631,10.242C-62.927,5.998 -66.772,0.737 -68.764,-5.198C-73.116,-18.164 -73.744,-24.042 -74.832,-45.798C-75.024,-49.633 -75.612,-64.261 -75.657,-67.671C-75.67,-68.671 -75.343,-69.869 -74.132,-70.811C-72.734,-71.899 -71.099,-71.274 -69.591,-70.823C-64.636,-69.343 -59.527,-68.166 -54.406,-67.294C-49.438,-66.447 -45.212,-65.826 -37.505,-65.741L-37.505,-65.737C-37.455,-65.737 -37.407,-65.738 -37.358,-65.739C-37.347,-65.739 -37.337,-65.738 -37.327,-65.738L-37.327,-65.739C-29.621,-65.825 -25.394,-66.446 -20.426,-67.292C-15.305,-68.165 -10.196,-69.341 -5.242,-70.822C-3.733,-71.273 -2.099,-71.897 -0.701,-70.81C0.511,-69.868 0.838,-68.669 0.825,-67.669C0.78,-64.259 0.192,-49.631 0,-45.797M5.264,-79.448C4.141,-80.149 2.72,-80.232 1.425,-79.961C-0.449,-79.568 -2.28,-78.72 -4.139,-78.215C-14.834,-75.307 -26.26,-73.06 -37.357,-73.036L-37.357,-73.037C-48.491,-73.044 -59.96,-75.298 -70.693,-78.216C-72.552,-78.721 -74.383,-79.569 -76.257,-79.962C-77.552,-80.234 -78.974,-80.15 -80.096,-79.449C-81.792,-78.39 -82.42,-76.199 -82.418,-74.199C-82.414,-68.349 -80.964,-44.805 -80.637,-38.866C-79.98,-26.933 -78.715,-14.908 -74.641,-3.672C-73.725,-1.145 -73.181,0.45 -71.231,4C-67.731,10.371 -63.604,14.633 -54.137,23.113C-51.608,25.378 -41.275,34.041 -37.521,34.422L-37.521,34.437C-37.483,34.436 -37.443,34.433 -37.403,34.43C-37.372,34.432 -37.341,34.435 -37.311,34.435L-37.311,34.423C-33.558,34.042 -23.224,25.38 -20.695,23.115C-11.228,14.635 -7.101,10.373 -3.601,4.001C-1.651,0.451 -1.108,-1.143 -0.191,-3.671C3.883,-14.906 5.148,-26.931 5.805,-38.865C6.132,-44.804 7.581,-68.347 7.586,-74.198C7.588,-76.198 6.96,-78.389 5.264,-79.448" style="fill:rgb(254,205,3);fill-rule:nonzero;"/>
    </g>
    <g transform="matrix(4.16667,0,0,4.16667,157.098,198.622)">
        <path d="M0,14.407C-1.52,14.08 -3.006,13.844 -4.439,13.426C-5.675,13.066 -6.732,13.274 -7.756,13.957C-7.86,14.027 -7.967,14.092 -8.076,14.153C-8.109,14.172 -8.153,14.172 -8.255,14.196C-9.356,8.757 -10.455,3.321 -11.555,-2.115C-10.456,-2.336 -10.421,-2.315 -10.126,-1.367C-9.145,1.786 -7.804,4.748 -5.55,7.221C-4.18,8.723 -2.561,9.874 -0.661,10.613C-0.474,10.686 -0.279,10.739 -0.005,10.828C-0.016,8.586 0.128,6.418 -0.468,4.302C-0.864,2.898 -1.842,2.112 -3.253,1.834C-3.396,1.806 -3.539,1.779 -3.681,1.746C-3.759,1.727 -3.835,1.695 -3.931,1.663L-3.931,0.733L10.982,0.733L10.982,1.688C10.626,1.763 10.267,1.852 9.902,1.915C8.664,2.13 7.9,2.892 7.695,4.083C7.47,5.391 7.362,6.724 7.284,8.051C7.219,9.149 7.27,10.254 7.27,11.481C8.008,11.3 8.68,11.185 9.318,10.971C12.661,9.847 15.2,7.85 16.232,4.333C17.226,0.943 16.211,-1.836 13.252,-3.735C10.88,-5.258 8.273,-6.206 5.487,-6.693C1.966,-7.308 -1.465,-8.226 -4.575,-10.072C-6.843,-11.418 -8.711,-13.151 -9.457,-15.775C-10.64,-19.935 -9.003,-24.855 -4.063,-27.172C-1.372,-28.434 1.481,-28.807 4.413,-28.5C7.272,-28.201 10.122,-27.821 12.974,-27.468C13.768,-27.37 14.508,-27.509 15.209,-27.884C15.426,-28 15.642,-28.118 15.933,-28.275C16.88,-23.916 17.814,-19.618 18.751,-15.305C18.076,-15.138 17.684,-15.214 17.392,-15.867C16.606,-17.622 15.615,-19.265 14.359,-20.735C11.827,-23.699 8.565,-25.04 4.72,-25.132C2.604,-25.182 0.55,-24.972 -1.298,-23.833C-2.856,-22.874 -3.815,-21.544 -3.728,-19.624C-3.688,-18.724 -3.334,-17.973 -2.647,-17.387C-1.295,-16.233 0.357,-15.687 2.012,-15.203C4.906,-14.357 7.841,-13.652 10.73,-12.79C13.739,-11.892 16.606,-10.668 19.072,-8.649C22.081,-6.184 23.36,-2.972 23.103,0.853C22.753,6.045 19.953,9.689 15.633,12.297C13.094,13.83 10.295,14.595 7.27,14.886L7.27,15.567C7.27,22.143 7.269,28.719 7.273,35.296C7.273,35.67 7.271,36.051 7.332,36.419C7.718,38.745 8.949,39.71 11.466,39.767C16.306,39.875 20.198,37.984 23.078,34.135C24.662,32.02 26.073,29.774 27.514,27.555C27.829,27.071 28.14,26.88 28.796,27.058C26.881,32.433 24.968,37.8 23.038,43.214C21.237,42.461 19.395,42.552 17.563,42.552L-3.927,42.552L-3.927,41.664C-3.482,41.584 -3.052,41.519 -2.628,41.426C-1.708,41.223 -0.983,40.703 -0.72,39.803C-0.42,38.772 -0.173,37.701 -0.1,36.634C0.018,34.909 -0.006,33.173 -0.003,31.442C0.006,26.056 0,20.67 0,15.283L0,14.407" style="fill:rgb(24,74,35);fill-rule:nonzero;"/>
    </g>
</svg>
